<svg width="110" height="105" viewBox="0 0 110 105" fill="none" xmlns="http://www.w3.org/2000/svg">
<rect y="-16" width="137" height="137" rx="68.5" fill="#F8F8F8"/>
<path d="M66.125 39.25C67.6168 39.25 69.0475 38.6574 70.1024 37.6025C71.1573 36.5476 71.75 35.1168 71.75 33.625C71.75 32.1332 71.1573 30.7024 70.1024 29.6475C69.0475 28.5926 67.6168 28 66.125 28C64.6331 28 63.2024 28.5926 62.1475 29.6475C61.0926 30.7024 60.5 32.1332 60.5 33.625C60.5 35.1168 61.0926 36.5476 62.1475 37.6025C63.2024 38.6574 64.6331 39.25 66.125 39.25ZM54.825 44.6025C53.2662 44.99 52.2025 45.5725 51.3437 46.295C50.0562 47.38 49.0162 48.945 47.6112 51.405C47.2822 51.9807 46.7379 52.4021 46.0982 52.5765C45.4585 52.7509 44.7756 52.664 44.2 52.335C43.6243 52.006 43.2029 51.4617 43.0285 50.822C42.8541 50.1823 42.9409 49.4994 43.27 48.9238C44.6687 46.4775 46.0825 44.1888 48.1237 42.4713C50.2537 40.6763 52.8612 39.6613 56.3775 39.27C57.8475 39.1075 59.465 39.14 60.9812 39.8163C62.5725 40.5275 63.735 41.8013 64.5275 43.5038C65.595 45.795 66.3887 47.1588 67.0237 47.95C67.33 48.3288 67.5437 48.505 67.665 48.5838C67.7612 48.6463 67.8025 48.6513 67.8175 48.6538C67.9262 48.6663 68.28 48.6538 69.315 48.195C69.7662 47.995 70.2587 47.755 70.8612 47.4613L71.005 47.3913C71.7418 47.0276 72.4853 46.6776 73.235 46.3413C73.8402 46.0755 74.5261 46.0604 75.1425 46.299C75.7589 46.5377 76.2558 47.0107 76.5243 47.6147C76.7928 48.2188 76.8112 48.9045 76.5755 49.5221C76.3397 50.1396 75.869 50.6386 75.2662 50.91C74.5715 51.2218 73.8826 51.5465 73.2 51.8838L73.0362 51.9638C72.46 52.245 71.88 52.5288 71.3362 52.7688C70.2112 53.2663 68.7737 53.8063 67.215 53.6175C65.57 53.4175 64.3025 52.4888 63.2587 51.2425L59.8425 57.8338L64.5675 63.9813C64.8487 64.3488 65.0225 64.7863 65.0712 65.2463L66.1112 75.2413C66.1508 75.5706 66.1245 75.9045 66.0338 76.2235C65.9431 76.5425 65.7899 76.8404 65.583 77.0996C65.376 77.3588 65.1196 77.5742 64.8286 77.7334C64.5376 77.8925 64.2178 77.9921 63.8879 78.0265C63.558 78.0608 63.2246 78.0292 62.907 77.9334C62.5895 77.8376 62.2942 77.6795 62.0383 77.4685C61.7824 77.2574 61.5711 76.9976 61.4167 76.704C61.2622 76.4105 61.1677 76.0892 61.1387 75.7588L60.1712 66.4675L57.3012 62.7325L57.2762 62.7788L57.1712 62.5638L51.8687 55.6638C51.6081 55.3246 51.4388 54.9243 51.3771 54.501C51.3153 54.0777 51.3632 53.6457 51.5162 53.2463L54.825 44.6025Z" fill="#000D0D"/>
<path d="M51.0399 59.2588L49.1999 64.2088L41.9499 63.6338C41.6203 63.6032 41.2879 63.6383 40.9719 63.7372C40.656 63.8361 40.3629 63.9968 40.1095 64.2099C39.8562 64.4229 39.6477 64.6842 39.4961 64.9785C39.3446 65.2728 39.253 65.5943 39.2267 65.9243C39.2003 66.2543 39.2398 66.5862 39.3428 66.9009C39.4458 67.2155 39.6103 67.5065 39.8266 67.757C40.043 68.0076 40.3069 68.2127 40.6032 68.3604C40.8995 68.5081 41.2221 68.5955 41.5524 68.6175L50.6874 69.3425C51.2296 69.3857 51.771 69.2508 52.2296 68.9585C52.6882 68.6662 53.0389 68.2322 53.2287 67.7225L54.6349 63.9375L51.0399 59.2588Z" fill="#000D0D"/>
<line x1="10.936" y1="7.50514" x2="54.4838" y2="13.7968" stroke="#008080"/>
<line x1="8.0723" y1="29.4204" x2="26.0723" y2="47.4204" stroke="#008080"/>
<line x1="15" y1="83.5" x2="29" y2="83.5" stroke="#008080"/>
<line x1="81.3536" y1="91.6464" x2="91.3536" y2="101.646" stroke="#008080"/>
<line x1="88.3536" y1="18.6464" x2="105.354" y2="35.6464" stroke="#008080"/>
</svg>
