<svg width="37" height="36" viewBox="0 0 37 36" fill="none" xmlns="http://www.w3.org/2000/svg">
<rect x="0.5" width="36" height="36" rx="18" fill="#008080" fill-opacity="0.08"/>
<path d="M17.1666 20.8449V24.6666H18.8332V20.8449C18.8332 20.4066 18.6549 19.9766 18.3449 19.6666L16.6782 17.9999L18.8332 15.8449L20.4999 17.5116C20.8099 17.8216 21.2399 17.9999 21.6782 17.9999H24.6666V16.3333H21.6782L18.5891 13.2441C18.5117 13.1666 18.4199 13.1052 18.3188 13.0633C18.2177 13.0213 18.1093 12.9998 17.9999 12.9998C17.8904 12.9998 17.7821 13.0213 17.681 13.0633C17.5799 13.1052 17.488 13.1666 17.4107 13.2441L14.6666 15.9883C14.3516 16.3033 14.1782 16.7216 14.1782 17.1666C14.1782 17.6116 14.3516 18.0299 14.6666 18.3449L17.1666 20.8449Z" fill="#000D0D"/>
<path d="M21.3334 13.8333C22.2539 13.8333 23.0001 13.0871 23.0001 12.1667C23.0001 11.2462 22.2539 10.5 21.3334 10.5C20.4129 10.5 19.6667 11.2462 19.6667 12.1667C19.6667 13.0871 20.4129 13.8333 21.3334 13.8333Z" fill="#000D0D"/>
<path d="M23.0001 19.6667C21.1617 19.6667 19.6667 21.1617 19.6667 23.0001C19.6667 24.8384 21.1617 26.3334 23.0001 26.3334C24.8384 26.3334 26.3334 24.8384 26.3334 23.0001C26.3334 21.1617 24.8384 19.6667 23.0001 19.6667ZM23.0001 24.6667C22.0809 24.6667 21.3334 23.9192 21.3334 23.0001C21.3334 22.0809 22.0809 21.3334 23.0001 21.3334C23.9192 21.3334 24.6667 22.0809 24.6667 23.0001C24.6667 23.9192 23.9192 24.6667 23.0001 24.6667ZM13.0001 26.3334C14.8384 26.3334 16.3334 24.8384 16.3334 23.0001C16.3334 21.1617 14.8384 19.6667 13.0001 19.6667C11.1617 19.6667 9.66675 21.1617 9.66675 23.0001C9.66675 24.8384 11.1617 26.3334 13.0001 26.3334ZM13.0001 21.3334C13.9192 21.3334 14.6667 22.0809 14.6667 23.0001C14.6667 23.9192 13.9192 24.6667 13.0001 24.6667C12.0809 24.6667 11.3334 23.9192 11.3334 23.0001C11.3334 22.0809 12.0809 21.3334 13.0001 21.3334Z" fill="#000D0D"/>
</svg>
