<svg width="37" height="36" viewBox="0 0 37 36" fill="none" xmlns="http://www.w3.org/2000/svg">
<rect x="0.5" width="36" height="36" rx="18" fill="#008080" fill-opacity="0.08"/>
<path d="M18 17.1667L17.1667 19.6667L18 22.1667M18 17.1667L15.9167 15.9167L15.5 19.6667M18 17.1667L20.9167 18.8334V23.4167M18 22.1667H16.75L15.5 19.6667M18 22.1667L20.9167 23.4167M15.5 19.6667V13.0001L18.8333 9.66675M15.5 19.6667L16.3333 22.1667M16.3333 22.1667H13L10.5 26.3334M16.3333 22.1667L17.1667 16.7501L16.3333 19.2501V22.1667ZM25.0833 26.3334L20.9167 23.4167M19.6667 15.0834C19.4457 15.0834 19.2337 14.9956 19.0774 14.8393C18.9211 14.6831 18.8333 14.4711 18.8333 14.2501C18.8333 14.0291 18.9211 13.8171 19.0774 13.6608C19.2337 13.5045 19.4457 13.4167 19.6667 13.4167C19.8877 13.4167 20.0996 13.5045 20.2559 13.6608C20.4122 13.8171 20.5 14.0291 20.5 14.2501C20.5 14.4711 20.4122 14.6831 20.2559 14.8393C20.0996 14.9956 19.8877 15.0834 19.6667 15.0834Z" stroke="#000D0D" stroke-width="2" stroke-linecap="round" stroke-linejoin="round"/>
</svg>
