<svg width="37" height="36" viewBox="0 0 37 36" fill="none" xmlns="http://www.w3.org/2000/svg">
<rect x="0.5" width="36" height="36" rx="18" fill="#008080" fill-opacity="0.08"/>
<path d="M20.7082 13.4167C21.2054 13.4167 21.6824 13.2192 22.034 12.8676C22.3856 12.5159 22.5832 12.039 22.5832 11.5417C22.5832 11.0445 22.3856 10.5676 22.034 10.2159C21.6824 9.86429 21.2054 9.66675 20.7082 9.66675C20.2109 9.66675 19.734 9.86429 19.3823 10.2159C19.0307 10.5676 18.8332 11.0445 18.8332 11.5417C18.8332 12.039 19.0307 12.5159 19.3823 12.8676C19.734 13.2192 20.2109 13.4167 20.7082 13.4167ZM16.9415 15.2009C16.4219 15.3301 16.0673 15.5242 15.7811 15.7651C15.3519 16.1267 15.0052 16.6484 14.5369 17.4684C14.4272 17.6603 14.2458 17.8008 14.0326 17.8589C13.8193 17.917 13.5917 17.8881 13.3998 17.7784C13.2079 17.6687 13.0675 17.4873 13.0093 17.2741C12.9512 17.0608 12.9801 16.8332 13.0898 16.6413C13.5561 15.8259 14.0273 15.063 14.7077 14.4905C15.4177 13.8922 16.2869 13.5538 17.459 13.4234C17.949 13.3692 18.4882 13.3801 18.9936 13.6055C19.524 13.8426 19.9115 14.2672 20.1757 14.8347C20.5315 15.5984 20.7961 16.053 21.0077 16.3167C21.1098 16.443 21.1811 16.5017 21.2215 16.528C21.2536 16.5488 21.2673 16.5505 21.2723 16.5513C21.3086 16.5555 21.4265 16.5513 21.7715 16.3984C21.9219 16.3317 22.0861 16.2517 22.2869 16.1538L22.3348 16.1305C22.5804 16.0093 22.8283 15.8926 23.0782 15.7805C23.2799 15.6919 23.5085 15.6869 23.714 15.7664C23.9195 15.846 24.0851 16.0037 24.1746 16.205C24.2641 16.4063 24.2703 16.6349 24.1917 16.8408C24.1131 17.0466 23.9562 17.213 23.7552 17.3034C23.5237 17.4074 23.2941 17.5156 23.0665 17.628L23.0119 17.6547C22.8198 17.7484 22.6265 17.843 22.4452 17.923C22.0702 18.0888 21.5911 18.2688 21.0715 18.2059C20.5232 18.1392 20.1007 17.8297 19.7527 17.4142L18.614 19.6113L20.189 21.6605C20.2827 21.783 20.3407 21.9288 20.3569 22.0822L20.7036 25.4138C20.7168 25.5236 20.708 25.6349 20.6778 25.7412C20.6476 25.8476 20.5965 25.9469 20.5275 26.0333C20.4585 26.1197 20.373 26.1915 20.276 26.2445C20.179 26.2976 20.0724 26.3308 19.9625 26.3422C19.8525 26.3537 19.7414 26.3431 19.6355 26.3112C19.5297 26.2793 19.4312 26.2266 19.3459 26.1562C19.2607 26.0859 19.1902 25.9993 19.1387 25.9014C19.0873 25.8036 19.0558 25.6965 19.0461 25.5863L18.7236 22.4892L17.7669 21.2442L17.7586 21.2597L17.7236 21.188L15.9561 18.888C15.8692 18.775 15.8128 18.6415 15.7922 18.5004C15.7716 18.3593 15.7876 18.2153 15.8386 18.0822L16.9415 15.2009Z" fill="#000D0D"/>
<path d="M15.6799 20.0864L15.0666 21.7364L12.6499 21.5448C12.54 21.5346 12.4292 21.5463 12.3239 21.5792C12.2186 21.6122 12.1209 21.6658 12.0364 21.7368C11.952 21.8078 11.8825 21.8949 11.832 21.993C11.7814 22.0911 11.7509 22.1983 11.7421 22.3083C11.7334 22.4183 11.7465 22.5289 11.7809 22.6338C11.8152 22.7387 11.87 22.8357 11.9421 22.9192C12.0142 23.0027 12.1022 23.0711 12.201 23.1203C12.2997 23.1695 12.4073 23.1987 12.5174 23.206L15.5624 23.4477C15.7431 23.4621 15.9236 23.4171 16.0764 23.3197C16.2293 23.2222 16.3462 23.0776 16.4095 22.9077L16.8782 21.646L15.6799 20.0864Z" fill="#000D0D"/>
</svg>
