<svg width="37" height="36" viewBox="0 0 37 36" fill="none" xmlns="http://www.w3.org/2000/svg">
<rect x="0.5" width="36" height="36" rx="18" fill="#008080" fill-opacity="0.08"/>
<path d="M27.5999 23.9999C27.1925 23.9998 26.7899 23.9124 26.4191 23.7435C26.0369 23.5699 25.6221 23.4793 25.2023 23.4779C24.7816 23.4796 24.366 23.5701 23.9827 23.7435C23.612 23.9123 23.2094 23.9996 22.8021 23.9996C22.3948 23.9996 21.9922 23.9123 21.6215 23.7435C21.238 23.571 20.8228 23.4805 20.4023 23.4779C19.9816 23.4799 19.5661 23.5704 19.1827 23.7435C18.8113 23.9123 18.4081 23.9996 18.0001 23.9996C17.5921 23.9996 17.1889 23.9123 16.8175 23.7435C16.436 23.5704 16.0221 23.4798 15.6031 23.4779C15.1826 23.4799 14.7671 23.5703 14.3839 23.7435C14.0126 23.9124 13.6094 23.9997 13.2015 23.9997C12.7936 23.9997 12.3904 23.9124 12.0191 23.7435C11.636 23.57 11.2205 23.4795 10.7999 23.4779C10.3808 23.4803 9.96694 23.5708 9.5851 23.7435C9.21269 23.9121 8.80868 23.9995 8.3999 23.9999V22.2415C8.80806 22.2392 9.21142 22.1533 9.5851 21.9891C9.96591 21.8128 10.3803 21.7209 10.7999 21.7195C11.2343 21.7195 11.6507 21.8195 12.0191 21.9891C12.3907 22.1533 12.7921 22.2392 13.1983 22.2415C13.6067 22.2398 14.0103 22.1539 14.3839 21.9891C14.7661 21.8124 15.182 21.7204 15.6031 21.7195C16.0343 21.7195 16.4487 21.8195 16.8175 21.9891C17.1907 22.1535 17.5937 22.2394 18.0015 22.2415C18.4084 22.2394 18.8105 22.1535 19.1827 21.9891C19.5651 21.8124 19.9811 21.7205 20.4023 21.7195C20.8315 21.7195 21.2475 21.8195 21.6215 21.9891C21.9795 22.1463 22.3815 22.2415 22.8015 22.2415C23.2084 22.2397 23.6106 22.1538 23.9827 21.9891C24.365 21.8121 24.7811 21.7201 25.2023 21.7195C25.6367 21.7195 26.0523 21.8195 26.4191 21.9891C26.7911 22.1537 27.1931 22.2396 27.5999 22.2415V23.9999ZM24.8191 19.0255C26.0799 19.0255 27.1031 18.0055 27.1031 16.7543C27.1031 15.5019 26.0799 14.4871 24.8191 14.4871C23.5563 14.4871 22.5343 15.5023 22.5343 16.7543C22.5343 18.0055 23.4655 19.0255 24.8191 19.0255ZM11.5163 20.3023C11.6935 20.3443 11.8607 20.4055 12.0195 20.4767C12.3904 20.6439 12.7923 20.7313 13.1991 20.7331C13.6191 20.7331 14.0267 20.6379 14.3843 20.4767C14.7671 20.3016 15.1826 20.2095 15.6035 20.2063C16.0347 20.2063 16.4499 20.3111 16.8179 20.4767C17.1903 20.6441 17.5936 20.7314 18.0019 20.7331C18.4179 20.7331 18.8251 20.6379 19.1827 20.4767C19.5656 20.3016 19.9813 20.2095 20.4023 20.2063C20.8319 20.2063 21.2483 20.3111 21.6215 20.4767C21.9799 20.6375 22.3815 20.7331 22.8023 20.7331C23.1083 20.7331 23.4031 20.6815 23.6811 20.5947L19.8711 13.7723L24.3027 12.9695C24.9531 12.8463 25.4251 12.3391 25.4251 11.6899C25.4251 10.9739 24.8383 10.3999 24.1203 10.3999L23.9723 10.4043L17.1267 11.6411C16.6463 11.7503 16.0099 12.4487 16.3723 13.3055L16.4307 13.4435L18.2171 16.6447L11.5163 20.3023Z" fill="#000D0D"/>
</svg>
