<svg width="37" height="36" viewBox="0 0 37 36" fill="none" xmlns="http://www.w3.org/2000/svg">
<rect x="0.5" width="36" height="36" rx="18" fill="#008080" fill-opacity="0.08"/>
<path d="M21.0209 11.3334C21.0209 11.7754 20.8454 12.1994 20.5328 12.5119C20.2202 12.8245 19.7963 13.0001 19.3543 13.0001C18.9123 13.0001 18.4883 12.8245 18.1758 12.5119C17.8632 12.1994 17.6876 11.7754 17.6876 11.3334C17.6876 10.8914 17.8632 10.4675 18.1758 10.1549C18.4883 9.84234 18.9123 9.66675 19.3543 9.66675C19.7963 9.66675 20.2202 9.84234 20.5328 10.1549C20.8454 10.4675 21.0209 10.8914 21.0209 11.3334ZM18.7055 19.8322L20.8693 21.9672C20.9522 22.049 21.0171 22.1474 21.0597 22.2559L22.2134 25.1955C22.2942 25.4013 22.29 25.6307 22.2016 25.8333C22.1132 26.0359 21.948 26.1951 21.7422 26.2759C21.5364 26.3567 21.307 26.3524 21.1044 26.264C20.9018 26.1757 20.7426 26.0104 20.6618 25.8047L19.5726 23.0292L15.8526 19.3584C15.7627 19.2698 15.6941 19.1619 15.6521 19.0428C15.61 18.9238 15.5955 18.7968 15.6097 18.6713L15.9076 16.038C15.1893 16.7522 14.6351 17.7559 14.2105 19.0863C14.1788 19.1924 14.1262 19.2911 14.0559 19.3766C13.9856 19.4621 13.899 19.5327 13.8011 19.5844C13.7032 19.6361 13.5959 19.6677 13.4857 19.6775C13.3754 19.6872 13.2643 19.6749 13.1588 19.6413C13.0534 19.6076 12.9557 19.5533 12.8714 19.4814C12.7872 19.4096 12.7181 19.3217 12.6682 19.2228C12.6184 19.124 12.5887 19.0162 12.5809 18.9058C12.5731 18.7954 12.5875 18.6845 12.623 18.5797C13.4022 16.138 14.6959 14.3105 16.8668 13.4726L16.8764 13.4688C17.4293 13.2634 18.0043 13.2801 18.5168 13.5447C19.0089 13.7992 19.3593 14.2388 19.5889 14.7313C19.6855 14.9388 19.7747 15.1326 19.8589 15.3147C20.0622 15.7555 20.233 16.1272 20.3976 16.453C20.628 16.9113 20.8134 17.2155 20.9968 17.4288C21.1668 17.6263 21.3355 17.748 21.5509 17.8322C21.7826 17.9226 22.1072 17.9851 22.6084 18.0001C22.7186 18.0023 22.8271 18.0263 22.9279 18.0707C23.0287 18.1152 23.1197 18.1791 23.1956 18.2589C23.2715 18.3387 23.3308 18.4328 23.3701 18.5356C23.4095 18.6385 23.428 18.7482 23.4247 18.8582C23.4214 18.9683 23.3963 19.0767 23.3509 19.177C23.3055 19.2773 23.2406 19.3677 23.16 19.4428C23.0795 19.5179 22.9848 19.5763 22.8816 19.6146C22.7783 19.6529 22.6685 19.6703 22.5584 19.6659C21.9564 19.648 21.4218 19.5709 20.9447 19.3847C20.4518 19.1922 20.063 18.8992 19.7322 18.5138C19.5239 18.2713 19.3405 17.9942 19.1697 17.693L18.7055 19.8322Z" fill="#000D0D"/>
<path d="M15.6098 20.5918L16.991 21.9168L16.3552 24.0614C16.306 24.2273 16.2064 24.3738 16.0702 24.4805L13.931 26.1568C13.8448 26.2243 13.7462 26.2741 13.6408 26.3035C13.5353 26.3329 13.4251 26.3412 13.3164 26.328C13.2078 26.3148 13.1028 26.2803 13.0074 26.2265C12.9121 26.1727 12.8283 26.1007 12.7608 26.0145C12.6933 25.9283 12.6435 25.8297 12.6141 25.7242C12.5847 25.6188 12.5764 25.5086 12.5896 25.3999C12.6028 25.2913 12.6373 25.1863 12.6911 25.0909C12.7449 24.9956 12.8169 24.9118 12.9031 24.8443L14.8331 23.3326L15.4143 21.3701L15.6098 20.5918Z" fill="#000D0D"/>
</svg>
