<svg width="36" height="36" viewBox="0 0 36 36" fill="none" xmlns="http://www.w3.org/2000/svg">
<rect width="36" height="36" rx="18" fill="#008080" fill-opacity="0.08"/>
<path d="M18 13C20.1217 13 22.1566 13.8429 23.6569 15.3432C25.1571 16.8435 26 18.8783 26 21C26 23.1218 25.1571 25.1566 23.6569 26.6569C22.1566 28.1572 20.1217 29 18 29C15.8783 29 13.8434 28.1572 12.3431 26.6569C10.8429 25.1566 10 23.1218 10 21C10 18.8783 10.8429 16.8435 12.3431 15.3432C13.8434 13.8429 15.8783 13 18 13ZM18 16.5L16.678 19.18L13.72 19.61L15.86 21.695L15.355 24.641L18 23.25L20.645 24.64L20.14 21.695L22.28 19.609L19.322 19.179L18 16.5ZM19 7.99902L24 8.00002V11L22.637 12.138C21.5059 11.545 20.271 11.1755 19 11.05V7.99902ZM17 7.99902V11.049C15.7293 11.1747 14.4948 11.5441 13.364 12.137L12 11V8.00002L17 7.99902Z" fill="#000D0D"/>
</svg>
