<svg width="16" height="16" viewBox="0 0 16 16" fill="none" xmlns="http://www.w3.org/2000/svg">
<path d="M8.00003 0.888916C6.59359 0.888916 5.21872 1.30598 4.04931 2.08735C2.87989 2.86873 1.96844 3.97934 1.43022 5.27872C0.891997 6.57811 0.751173 8.00792 1.02556 9.38734C1.29994 10.7668 1.97721 12.0338 2.97172 13.0283C3.96622 14.0228 5.2333 14.7001 6.61272 14.9745C7.99214 15.2489 9.42195 15.1081 10.7213 14.5698C12.0207 14.0316 13.1313 13.1202 13.9127 11.9507C14.6941 10.7813 15.1111 9.40647 15.1111 8.00003C15.1111 6.11404 14.3619 4.3053 13.0283 2.97171C11.6948 1.63812 9.88601 0.888916 8.00003 0.888916ZM10.7556 10.3022C10.7233 10.3511 10.6817 10.3931 10.6331 10.4258C10.5845 10.4585 10.53 10.4813 10.4726 10.4929C10.4152 10.5045 10.356 10.5046 10.2986 10.4932C10.2411 10.4818 10.1865 10.4592 10.1378 10.4267L7.51559 8.64892V4.7778C7.51559 4.65993 7.56241 4.54688 7.64576 4.46354C7.72911 4.38019 7.84216 4.33336 7.96003 4.33336C8.0779 4.33336 8.19095 4.38019 8.2743 4.46354C8.35765 4.54688 8.40447 4.65993 8.40447 4.7778V8.1778L10.6267 9.68447C10.6759 9.71641 10.7183 9.75778 10.7515 9.80618C10.7846 9.85459 10.8078 9.90908 10.8198 9.96651C10.8318 10.0239 10.8323 10.0832 10.8213 10.1408C10.8102 10.1984 10.7879 10.2533 10.7556 10.3022ZM10.6 3.6578C9.97468 3.28088 9.27519 3.04369 8.54955 2.96252C7.82392 2.88135 7.08931 2.95812 6.39613 3.18755C5.70295 3.41698 5.06761 3.79366 4.53369 4.29172C3.99977 4.78979 3.57992 5.39747 3.30294 6.07305C3.02596 6.74864 2.8984 7.47615 2.92903 8.20567C2.95965 8.93519 3.14772 9.64946 3.48035 10.2995C3.81297 10.9495 4.28227 11.5198 4.85605 11.9714C5.42983 12.4229 6.09451 12.745 6.80448 12.9156L6.6667 13.6134C5.85245 13.4238 5.08903 13.0599 4.42914 12.5466C3.76925 12.0333 3.2286 11.3829 2.84453 10.6404C2.46046 9.89781 2.24211 9.08074 2.20455 8.24557C2.16699 7.41041 2.31112 6.57703 2.62699 5.80299C2.94286 5.02895 3.42294 4.33267 4.0341 3.76223C4.64526 3.19179 5.37292 2.76077 6.16687 2.49893C6.96082 2.23709 7.80214 2.15066 8.63274 2.24561C9.46334 2.34057 10.2634 2.61464 10.9778 3.04892L10.6 3.6578Z" fill="#000980"/>
</svg>
