<svg width="16" height="16" viewBox="0 0 16 16" fill="none" xmlns="http://www.w3.org/2000/svg">
<path d="M2.375 2.375C2.375 1.77826 2.61205 1.20597 3.03401 0.78401C3.45597 0.362053 4.02826 0.125 4.625 0.125C5.22174 0.125 5.79403 0.362053 6.21599 0.78401C6.63795 1.20597 6.875 1.77826 6.875 2.375C6.875 2.97174 6.63795 3.54403 6.21599 3.96599C5.79403 4.38795 5.22174 4.625 4.625 4.625C4.02826 4.625 3.45597 4.38795 3.03401 3.96599C2.61205 3.54403 2.375 2.97174 2.375 2.375ZM10.0014 4.157L10.0486 4.193C10.526 4.54682 11.1239 4.69747 11.7119 4.61207C12.2999 4.52668 12.8302 4.21217 13.1872 3.73719C13.5441 3.26221 13.6987 2.66531 13.6172 2.07676C13.5357 1.48822 13.2247 0.955803 12.7521 0.595713C12.2795 0.235624 11.6836 0.0770937 11.0945 0.154719C10.5055 0.232345 9.971 0.539824 9.6078 1.01005C9.2446 1.48028 9.08214 2.07509 9.15587 2.66466C9.22961 3.25423 9.53355 3.7907 10.0014 4.157ZM6.0515 5.75C6.1928 5.48243 6.38662 5.24612 6.62136 5.05519C6.85611 4.86426 7.12695 4.72264 7.41769 4.6388C7.70842 4.55496 8.01309 4.53063 8.31345 4.56726C8.61381 4.60388 8.90369 4.70072 9.16577 4.85196C9.42784 5.00321 9.65671 5.20577 9.83869 5.44751C10.0207 5.68926 10.152 5.96522 10.2249 6.2589C10.2978 6.55259 10.3106 6.85795 10.2628 7.15672C10.2149 7.45549 10.1072 7.74154 9.94625 7.99775C9.63656 8.49064 9.14789 8.84433 8.58291 8.9845C8.01793 9.12468 7.4206 9.04043 6.91643 8.74946C6.41226 8.45849 6.04048 7.98345 5.87919 7.42413C5.7179 6.8648 5.77966 6.26474 6.0515 5.75ZM1.8125 5.75H4.81625C4.61631 6.321 4.57283 6.93511 4.69034 7.52859C4.80785 8.12206 5.08206 8.67327 5.4845 9.125H5.1875C4.60749 9.12492 4.04163 9.30409 3.56737 9.63798C3.09311 9.97188 2.73363 10.4442 2.53813 10.9902C2.1605 10.8386 1.80693 10.6328 1.4885 10.3794C0.6425 9.69875 0.125 8.693 0.125 7.4375C0.125 6.98995 0.30279 6.56072 0.619257 6.24426C0.935725 5.92779 1.36495 5.75 1.8125 5.75ZM10.8125 9.125C12.0331 9.125 13.0726 9.90238 13.4619 10.9902C13.8444 10.8339 14.1976 10.6302 14.5115 10.3794C15.3575 9.69875 15.875 8.693 15.875 7.4375C15.875 6.98995 15.6972 6.56072 15.3807 6.24426C15.0643 5.92779 14.6351 5.75 14.1875 5.75H11.1838C11.3075 6.10213 11.375 6.48125 11.375 6.875C11.376 7.70538 11.0699 8.5068 10.5155 9.125H10.8125ZM12.3729 11.294C12.455 11.492 12.5 11.7102 12.5 11.9375C12.5 13.193 11.9836 14.1987 11.1365 14.8794C10.3029 15.5487 9.18462 15.875 8 15.875C6.81537 15.875 5.69712 15.5487 4.8635 14.8794C4.0175 14.1987 3.5 13.193 3.5 11.9375C3.49941 11.7157 3.54265 11.496 3.62724 11.291C3.71184 11.086 3.83612 10.8998 3.99293 10.7429C4.14975 10.5861 4.33602 10.4618 4.54102 10.3772C4.74603 10.2926 4.96573 10.2494 5.1875 10.25H10.8125C11.1467 10.2499 11.4735 10.3491 11.7513 10.535C12.0291 10.7208 12.2454 10.985 12.3729 11.294Z" fill="#ADADAD"/>
</svg>
