<svg width="20" height="20" viewBox="0 0 20 20" fill="none" xmlns="http://www.w3.org/2000/svg">
<path d="M9.16656 12.8449V16.6666H10.8332V12.8449C10.8332 12.4066 10.6549 11.9766 10.3449 11.6666L8.67822 9.99992L10.8332 7.84492L12.4999 9.51159C12.8099 9.82159 13.2399 9.99992 13.6782 9.99992H16.6666V8.33326H13.6782L10.5891 5.24409C10.5117 5.16664 10.4199 5.10519 10.3188 5.06326C10.2177 5.02134 10.1093 4.99976 9.99989 4.99976C9.89044 4.99976 9.78207 5.02134 9.68098 5.06326C9.57988 5.10519 9.48805 5.16664 9.41072 5.24409L6.66656 7.98826C6.35156 8.30326 6.17822 8.72159 6.17822 9.16659C6.17822 9.61159 6.35156 10.0299 6.66656 10.3449L9.16656 12.8449Z" fill="#000D0D"/>
<path d="M13.3334 5.83333C14.2539 5.83333 15.0001 5.08714 15.0001 4.16667C15.0001 3.24619 14.2539 2.5 13.3334 2.5C12.4129 2.5 11.6667 3.24619 11.6667 4.16667C11.6667 5.08714 12.4129 5.83333 13.3334 5.83333Z" fill="#000D0D"/>
<path d="M15.0001 11.6667C13.1617 11.6667 11.6667 13.1617 11.6667 15.0001C11.6667 16.8384 13.1617 18.3334 15.0001 18.3334C16.8384 18.3334 18.3334 16.8384 18.3334 15.0001C18.3334 13.1617 16.8384 11.6667 15.0001 11.6667ZM15.0001 16.6667C14.0809 16.6667 13.3334 15.9192 13.3334 15.0001C13.3334 14.0809 14.0809 13.3334 15.0001 13.3334C15.9192 13.3334 16.6667 14.0809 16.6667 15.0001C16.6667 15.9192 15.9192 16.6667 15.0001 16.6667ZM5.00008 18.3334C6.83841 18.3334 8.33341 16.8384 8.33341 15.0001C8.33341 13.1617 6.83841 11.6667 5.00008 11.6667C3.16175 11.6667 1.66675 13.1617 1.66675 15.0001C1.66675 16.8384 3.16175 18.3334 5.00008 18.3334ZM5.00008 13.3334C5.91925 13.3334 6.66675 14.0809 6.66675 15.0001C6.66675 15.9192 5.91925 16.6667 5.00008 16.6667C4.08091 16.6667 3.33341 15.9192 3.33341 15.0001C3.33341 14.0809 4.08091 13.3334 5.00008 13.3334Z" fill="#000D0D"/>
</svg>
