<svg width="77" height="105" viewBox="0 0 77 105" fill="none" xmlns="http://www.w3.org/2000/svg">
<rect y="-8" width="113" height="113" rx="56.5" fill="#F8F8F8"/>
<path d="M35.3125 42.0066C35.3125 34.5177 40.2981 27.5742 47.1238 27.5742C51.861 27.5742 55.3765 30.6896 57.5463 35.1089C59.716 30.6896 63.2316 27.5742 67.9687 27.5742C74.7958 27.5742 79.7801 34.519 79.7801 42.0066C79.7801 58.0332 57.5463 69.4261 57.5463 69.4261C57.5463 69.4261 42.5698 62.2158 37.1997 50.3887H50.4641L52.5724 46.6417L55.0352 55.2605L60.8029 47.8462H68.0092V45.2305H59.5212L56.1338 49.5857L53.365 39.8957L48.9339 47.773H36.2018C36.4791 48.6689 36.8152 49.5412 37.1997 50.3887H31.3889V47.773H36.2018C35.6159 45.9063 35.3161 43.963 35.3125 42.0066Z" fill="#000D0D"/>
</svg>
