<svg width="46" height="43" viewBox="0 0 46 43" fill="none" xmlns="http://www.w3.org/2000/svg">
<path d="M4.31253 15.0066C4.31253 7.5177 9.29813 0.574219 16.1239 0.574219C20.861 0.574219 24.3766 3.68957 26.5463 8.10886C28.7161 3.68957 32.2316 0.574219 36.9688 0.574219C43.7958 0.574219 48.7801 7.51901 48.7801 15.0066C48.7801 31.0332 26.5463 42.4261 26.5463 42.4261C26.5463 42.4261 11.5699 35.2158 6.19978 23.3887H19.4642L21.5725 19.6417L24.0352 28.2605L29.8029 20.8462H37.0093V18.2305H28.5212L25.1338 22.5857L22.3651 12.8957L17.934 20.773H5.20188C5.47915 21.6689 5.81527 22.5412 6.19978 23.3887H0.388916V20.773H5.20188C4.61598 18.9063 4.31613 16.963 4.31253 15.0066Z" fill="#000D0D"/>
</svg>
