<svg width="19" height="18" viewBox="0 0 19 18" fill="none" xmlns="http://www.w3.org/2000/svg">
<path d="M9.89 0.144039C9.78132 0.0510818 9.64301 0 9.5 0C9.35699 0 9.21868 0.0510818 9.11 0.144039L0.5 7.52404V16.2C0.5 16.6774 0.689642 17.1353 1.02721 17.4728C1.36477 17.8104 1.82261 18 2.3 18H7.1C7.25913 18 7.41174 17.9368 7.52426 17.8243C7.63679 17.7118 7.7 17.5592 7.7 17.4V13.8C7.7 13.3226 7.88964 12.8648 8.22721 12.5272C8.56477 12.1897 9.02261 12 9.5 12C9.97739 12 10.4352 12.1897 10.7728 12.5272C11.1104 12.8648 11.3 13.3226 11.3 13.8V17.4C11.3 17.5592 11.3632 17.7118 11.4757 17.8243C11.5883 17.9368 11.7409 18 11.9 18H16.7C17.1774 18 17.6352 17.8104 17.9728 17.4728C18.3104 17.1353 18.5 16.6774 18.5 16.2V7.52404L9.89 0.144039Z" fill="#000980"/>
</svg>
