<svg width="14" height="19" viewBox="0 0 14 19" fill="none" xmlns="http://www.w3.org/2000/svg">
<path d="M3.66667 15.4184C3.9225 15.585 4.24917 15.635 4.55584 15.5292L6.66917 14.8092C6.88366 14.7361 7.11635 14.7361 7.33084 14.8092L9.44417 15.5292C9.75084 15.6342 10.0775 15.585 10.3333 15.4184V18.6634L7 17.5317L3.66667 18.6634V15.4184ZM6.73084 13.4434L5.0125 14.0292C4.82013 14.0947 4.61046 14.0877 4.42292 14.0094C4.23538 13.9311 4.0829 13.787 3.99417 13.6042L3.15667 11.8834C3.07973 11.7244 2.95424 11.5939 2.79834 11.5109L1.13167 10.6275C0.960151 10.5363 0.825889 10.3881 0.75209 10.2083C0.678292 10.0286 0.669595 9.82881 0.727504 9.64337L1.31917 7.74921C1.36965 7.5875 1.36965 7.41425 1.31917 7.25254L0.727504 5.35837C0.669445 5.17273 0.678153 4.97263 0.752121 4.79273C0.826088 4.61284 0.960654 4.46448 1.1325 4.37337L2.79834 3.49004C2.95411 3.40721 3.07958 3.27707 3.15667 3.11837L3.99417 1.39504C4.08304 1.21237 4.23558 1.06845 4.42311 0.990335C4.61063 0.912224 4.82023 0.905303 5.0125 0.970872L6.73084 1.55671C6.90534 1.61626 7.09467 1.61626 7.26917 1.55671L8.9875 0.970872C9.17987 0.905364 9.38955 0.912407 9.57709 0.990677C9.76463 1.06895 9.91711 1.21305 10.0058 1.39587L10.8433 3.11754C10.9203 3.27655 11.0458 3.40699 11.2017 3.49004L12.8683 4.37337C13.0399 4.46459 13.1741 4.61286 13.2479 4.79256C13.3217 4.97227 13.3304 5.1721 13.2725 5.35754L12.6808 7.25171C12.6304 7.41341 12.6304 7.58667 12.6808 7.74837L13.2725 9.64254C13.3306 9.82818 13.3219 10.0283 13.2479 10.2082C13.1739 10.3881 13.0394 10.5364 12.8675 10.6275L11.2017 11.5109C11.0459 11.5937 10.9204 11.7238 10.8433 11.8825L10.0058 13.605C9.91697 13.7877 9.76443 13.9316 9.5769 14.0097C9.38938 14.0879 9.17978 14.0948 8.9875 14.0292L7.26917 13.4434C7.09467 13.3838 6.90534 13.3838 6.73084 13.4434ZM7 5.00004C6.77899 5.00004 6.56703 5.08784 6.41075 5.24412C6.25447 5.4004 6.16667 5.61236 6.16667 5.83337V9.16671C6.16667 9.38772 6.25447 9.59968 6.41075 9.75596C6.56703 9.91224 6.77899 10 7 10C7.22102 10 7.43298 9.91224 7.58926 9.75596C7.74554 9.59968 7.83334 9.38772 7.83334 9.16671V5.83337C7.83334 5.61236 7.74554 5.4004 7.58926 5.24412C7.43298 5.08784 7.22102 5.00004 7 5.00004Z" fill="#7200E4"/>
</svg>
