<svg width="36" height="36" viewBox="0 0 36 36" fill="none" xmlns="http://www.w3.org/2000/svg">
<rect width="36" height="36" rx="18" fill="#F8F2FF"/>
<path d="M17.5 17.1667L16.6667 19.6667L17.5 22.1667M17.5 17.1667L15.4167 15.9167L15 19.6667M17.5 17.1667L20.4167 18.8334V23.4167M17.5 22.1667H16.25L15 19.6667M17.5 22.1667L20.4167 23.4167M15 19.6667V13.0001L18.3333 9.66675M15 19.6667L15.8333 22.1667M15.8333 22.1667H12.5L10 26.3334M15.8333 22.1667L16.6667 16.7501L15.8333 19.2501V22.1667ZM24.5833 26.3334L20.4167 23.4167M19.1667 15.0834C18.9457 15.0834 18.7337 14.9956 18.5774 14.8393C18.4211 14.6831 18.3333 14.4711 18.3333 14.2501C18.3333 14.0291 18.4211 13.8171 18.5774 13.6608C18.7337 13.5045 18.9457 13.4167 19.1667 13.4167C19.3877 13.4167 19.5996 13.5045 19.7559 13.6608C19.9122 13.8171 20 14.0291 20 14.2501C20 14.4711 19.9122 14.6831 19.7559 14.8393C19.5996 14.9956 19.3877 15.0834 19.1667 15.0834Z" stroke="#000D0D" stroke-width="2" stroke-linecap="round" stroke-linejoin="round"/>
</svg>
