<svg width="20" height="20" viewBox="0 0 20 20" fill="none" xmlns="http://www.w3.org/2000/svg">
<path d="M12.7082 5.41675C13.2054 5.41675 13.6824 5.2192 14.034 4.86757C14.3856 4.51594 14.5832 4.03903 14.5832 3.54175C14.5832 3.04447 14.3856 2.56755 14.034 2.21592C13.6824 1.86429 13.2054 1.66675 12.7082 1.66675C12.2109 1.66675 11.734 1.86429 11.3823 2.21592C11.0307 2.56755 10.8332 3.04447 10.8332 3.54175C10.8332 4.03903 11.0307 4.51594 11.3823 4.86757C11.734 5.2192 12.2109 5.41675 12.7082 5.41675ZM8.94149 7.20091C8.42191 7.33008 8.06732 7.52425 7.78107 7.76508C7.35191 8.12675 7.00524 8.64842 6.53691 9.46842C6.42723 9.66031 6.24581 9.80078 6.03257 9.85891C5.81933 9.91705 5.59172 9.88809 5.39983 9.77842C5.20793 9.66874 5.06746 9.48732 5.00933 9.27408C4.95119 9.06083 4.98015 8.83323 5.08983 8.64133C5.55607 7.82592 6.02733 7.063 6.70774 6.4905C7.41774 5.89216 8.28691 5.55383 9.45899 5.42341C9.94899 5.36925 10.4882 5.38008 10.9936 5.6055C11.524 5.84258 11.9115 6.26716 12.1757 6.83466C12.5315 7.59841 12.7961 8.053 13.0077 8.31675C13.1098 8.443 13.1811 8.50175 13.2215 8.528C13.2536 8.54883 13.2673 8.5505 13.2723 8.55133C13.3086 8.5555 13.4265 8.55133 13.7715 8.39842C13.9219 8.33175 14.0861 8.25175 14.2869 8.15383L14.3348 8.1305C14.5804 8.00929 14.8283 7.89261 15.0782 7.7805C15.2799 7.69193 15.5085 7.68686 15.714 7.76642C15.9195 7.84597 16.0851 8.00366 16.1746 8.20499C16.2641 8.40633 16.2703 8.63492 16.1917 8.84077C16.1131 9.04662 15.9562 9.21296 15.7552 9.30341C15.5237 9.40735 15.2941 9.51556 15.0665 9.628L15.0119 9.65466C14.8198 9.74841 14.6265 9.843 14.4452 9.923C14.0702 10.0888 13.5911 10.2688 13.0715 10.2059C12.5232 10.1392 12.1007 9.82967 11.7527 9.41425L10.614 11.6113L12.189 13.6605C12.2827 13.783 12.3407 13.9288 12.3569 14.0822L12.7036 17.4138C12.7168 17.5236 12.708 17.6349 12.6778 17.7412C12.6476 17.8476 12.5965 17.9469 12.5275 18.0333C12.4585 18.1197 12.373 18.1915 12.276 18.2445C12.179 18.2976 12.0724 18.3308 11.9625 18.3422C11.8525 18.3537 11.7414 18.3431 11.6355 18.3112C11.5297 18.2793 11.4312 18.2266 11.3459 18.1562C11.2607 18.0859 11.1902 17.9993 11.1387 17.9014C11.0873 17.8036 11.0558 17.6965 11.0461 17.5863L10.7236 14.4892L9.76691 13.2442L9.75857 13.2597L9.72358 13.188L7.95607 10.888C7.86919 10.775 7.81276 10.6415 7.79219 10.5004C7.77162 10.3593 7.78759 10.2153 7.83858 10.0822L8.94149 7.20091Z" fill="#000D0D"/>
<path d="M7.67989 12.0864L7.06656 13.7364L4.64989 13.5448C4.54002 13.5346 4.42921 13.5463 4.3239 13.5792C4.21859 13.6122 4.12088 13.6658 4.03643 13.7368C3.95198 13.8078 3.88248 13.8949 3.83196 13.993C3.78145 14.0911 3.75091 14.1983 3.74214 14.3083C3.73337 14.4183 3.74653 14.5289 3.78086 14.6338C3.81519 14.7387 3.87 14.8357 3.94212 14.9192C4.01425 15.0027 4.10224 15.0711 4.20099 15.1203C4.29974 15.1695 4.40729 15.1987 4.51739 15.206L7.56239 15.4477C7.7431 15.4621 7.92358 15.4171 8.07645 15.3197C8.22931 15.2222 8.34623 15.0776 8.40947 14.9077L8.87822 13.646L7.67989 12.0864Z" fill="#000D0D"/>
</svg>
