<svg width="20" height="20" viewBox="0 0 20 20" fill="none" xmlns="http://www.w3.org/2000/svg">
<path d="M19.5999 15.9999C19.1925 15.9998 18.7899 15.9124 18.4191 15.7435C18.0369 15.5699 17.6221 15.4793 17.2023 15.4779C16.7816 15.4796 16.366 15.5701 15.9827 15.7435C15.612 15.9123 15.2094 15.9996 14.8021 15.9996C14.3948 15.9996 13.9922 15.9123 13.6215 15.7435C13.238 15.571 12.8228 15.4805 12.4023 15.4779C11.9816 15.4799 11.5661 15.5704 11.1827 15.7435C10.8113 15.9123 10.4081 15.9996 10.0001 15.9996C9.59215 15.9996 9.18892 15.9123 8.8175 15.7435C8.43595 15.5704 8.0221 15.4798 7.6031 15.4779C7.18256 15.4799 6.76715 15.5703 6.3839 15.7435C6.01258 15.9124 5.60941 15.9997 5.2015 15.9997C4.7936 15.9997 4.39042 15.9124 4.0191 15.7435C3.63597 15.57 3.22048 15.4795 2.7999 15.4779C2.38083 15.4803 1.96694 15.5708 1.5851 15.7435C1.21269 15.9121 0.808683 15.9995 0.399902 15.9999V14.2415C0.808061 14.2392 1.21142 14.1533 1.5851 13.9891C1.96591 13.8128 2.38028 13.7209 2.7999 13.7195C3.2343 13.7195 3.6507 13.8195 4.0191 13.9891C4.39068 14.1533 4.79208 14.2392 5.1983 14.2415C5.60666 14.2398 6.01027 14.1539 6.3839 13.9891C6.76611 13.8124 7.18202 13.7204 7.6031 13.7195C8.0343 13.7195 8.4487 13.8195 8.8175 13.9891C9.19071 14.1535 9.59371 14.2394 10.0015 14.2415C10.4084 14.2394 10.8105 14.1535 11.1827 13.9891C11.5651 13.8124 11.9811 13.7205 12.4023 13.7195C12.8315 13.7195 13.2475 13.8195 13.6215 13.9891C13.9795 14.1463 14.3815 14.2415 14.8015 14.2415C15.2084 14.2397 15.6106 14.1538 15.9827 13.9891C16.365 13.8121 16.7811 13.7201 17.2023 13.7195C17.6367 13.7195 18.0523 13.8195 18.4191 13.9891C18.7911 14.1537 19.1931 14.2396 19.5999 14.2415V15.9999ZM16.8191 11.0255C18.0799 11.0255 19.1031 10.0055 19.1031 8.7543C19.1031 7.5019 18.0799 6.4871 16.8191 6.4871C15.5563 6.4871 14.5343 7.5023 14.5343 8.7543C14.5343 10.0055 15.4655 11.0255 16.8191 11.0255ZM3.5163 12.3023C3.6935 12.3443 3.8607 12.4055 4.0195 12.4767C4.39038 12.6439 4.79228 12.7313 5.1991 12.7331C5.6191 12.7331 6.0267 12.6379 6.3843 12.4767C6.76709 12.3016 7.18258 12.2095 7.6035 12.2063C8.0347 12.2063 8.4499 12.3111 8.8179 12.4767C9.19028 12.6441 9.59364 12.7314 10.0019 12.7331C10.4179 12.7331 10.8251 12.6379 11.1827 12.4767C11.5656 12.3016 11.9813 12.2095 12.4023 12.2063C12.8319 12.2063 13.2483 12.3111 13.6215 12.4767C13.9799 12.6375 14.3815 12.7331 14.8023 12.7331C15.1083 12.7331 15.4031 12.6815 15.6811 12.5947L11.8711 5.7723L16.3027 4.9695C16.9531 4.8463 17.4251 4.3391 17.4251 3.6899C17.4251 2.9739 16.8383 2.3999 16.1203 2.3999L15.9723 2.4043L9.1267 3.6411C8.6463 3.7503 8.0099 4.4487 8.3723 5.3055L8.4307 5.4435L10.2171 8.6447L3.5163 12.3023Z" fill="#000D0D"/>
</svg>
