<svg width="12" height="18" viewBox="0 0 12 18" fill="none" xmlns="http://www.w3.org/2000/svg">
<path d="M9.02082 2.33341C9.02082 2.77544 8.84523 3.19937 8.53267 3.51193C8.22011 3.82449 7.79618 4.00008 7.35416 4.00008C6.91213 4.00008 6.48821 3.82449 6.17564 3.51193C5.86308 3.19937 5.68749 2.77544 5.68749 2.33341C5.68749 1.89139 5.86308 1.46746 6.17564 1.1549C6.48821 0.842343 6.91213 0.666748 7.35416 0.666748C7.79618 0.666748 8.22011 0.842343 8.53267 1.1549C8.84523 1.46746 9.02082 1.89139 9.02082 2.33341ZM6.70541 10.8322L8.86916 12.9672C8.95212 13.049 9.01699 13.1474 9.05957 13.2559L10.2133 16.1955C10.2941 16.4013 10.2898 16.6307 10.2015 16.8333C10.1131 17.0359 9.94784 17.1951 9.74207 17.2759C9.53631 17.3567 9.30688 17.3524 9.10427 17.264C8.90165 17.1757 8.74244 17.0104 8.66166 16.8047L7.57249 14.0292L3.85249 10.3584C3.7626 10.2698 3.69402 10.1619 3.65194 10.0428C3.60986 9.92381 3.59537 9.79678 3.60957 9.67133L3.90749 7.038C3.18916 7.75216 2.63499 8.75591 2.21041 10.0863C2.17866 10.1924 2.1261 10.2911 2.0558 10.3766C1.9855 10.4621 1.89886 10.5327 1.80095 10.5844C1.70304 10.6361 1.59582 10.6677 1.48554 10.6775C1.37527 10.6872 1.26416 10.6749 1.15869 10.6413C1.05323 10.6076 0.955531 10.5533 0.871301 10.4814C0.78707 10.4096 0.717999 10.3217 0.668118 10.2228C0.618238 10.124 0.58855 10.0162 0.580787 9.9058C0.573024 9.79537 0.587342 9.6845 0.622906 9.57967C1.40207 7.138 2.69582 5.3105 4.86666 4.47258L4.87624 4.46883C5.42916 4.26341 6.00416 4.28008 6.51666 4.54466C7.00874 4.79925 7.35916 5.23883 7.58874 5.73133C7.68541 5.93883 7.77457 6.13258 7.85874 6.31466C8.06207 6.7555 8.23291 7.12716 8.39749 7.453C8.62791 7.91133 8.81332 8.2155 8.99666 8.42883C9.16666 8.62633 9.33541 8.748 9.55082 8.83216C9.78249 8.92258 10.1071 8.98508 10.6083 9.00008C10.7184 9.00229 10.827 9.0263 10.9278 9.07072C11.0286 9.11515 11.1195 9.17911 11.1954 9.25891C11.2714 9.33871 11.3307 9.43277 11.37 9.53564C11.4094 9.63851 11.4279 9.74816 11.4246 9.85825C11.4213 9.96833 11.3962 10.0767 11.3508 10.177C11.3053 10.2773 11.2405 10.3677 11.1599 10.4428C11.0794 10.5179 10.9847 10.5763 10.8815 10.6146C10.7782 10.6529 10.6684 10.6703 10.5583 10.6659C9.95624 10.648 9.42166 10.5709 8.94457 10.3847C8.45166 10.1922 8.06291 9.89925 7.73207 9.51383C7.52374 9.27133 7.34041 8.99425 7.16957 8.693L6.70541 10.8322Z" fill="#000D0D"/>
<path d="M3.60958 11.5918L4.99083 12.9168L4.355 15.0614C4.30582 15.2273 4.20621 15.3738 4.07 15.4805L1.93083 17.1568C1.84465 17.2243 1.74602 17.2741 1.64057 17.3035C1.53512 17.3329 1.42492 17.3412 1.31625 17.328C1.20759 17.3148 1.10259 17.2803 1.00726 17.2265C0.911921 17.1727 0.828114 17.1007 0.76062 17.0145C0.693126 16.9283 0.643268 16.8297 0.613891 16.7242C0.584514 16.6188 0.576195 16.5086 0.589408 16.3999C0.602621 16.2913 0.637107 16.1863 0.690899 16.0909C0.74469 15.9956 0.816732 15.9118 0.902912 15.8443L2.83291 14.3326L3.41416 12.3701L3.60958 11.5918Z" fill="#000D0D"/>
</svg>
