<svg width="20" height="20" viewBox="0 0 20 20" fill="none" xmlns="http://www.w3.org/2000/svg">
<path d="M10 9.16675L9.16667 11.6667L10 14.1667M10 9.16675L7.91667 7.91675L7.5 11.6667M10 9.16675L12.9167 10.8334V15.4167M10 14.1667H8.75L7.5 11.6667M10 14.1667L12.9167 15.4167M7.5 11.6667V5.00008L10.8333 1.66675M7.5 11.6667L8.33333 14.1667M8.33333 14.1667H5L2.5 18.3334M8.33333 14.1667L9.16667 8.75008L8.33333 11.2501V14.1667ZM17.0833 18.3334L12.9167 15.4167M11.6667 7.08341C11.4457 7.08341 11.2337 6.99562 11.0774 6.83934C10.9211 6.68306 10.8333 6.4711 10.8333 6.25008C10.8333 6.02907 10.9211 5.81711 11.0774 5.66083C11.2337 5.50455 11.4457 5.41675 11.6667 5.41675C11.8877 5.41675 12.0996 5.50455 12.2559 5.66083C12.4122 5.81711 12.5 6.02907 12.5 6.25008C12.5 6.4711 12.4122 6.68306 12.2559 6.83934C12.0996 6.99562 11.8877 7.08341 11.6667 7.08341Z" stroke="#000D0D" stroke-width="2" stroke-linecap="round" stroke-linejoin="round"/>
</svg>
